HIERARCHY
ROOT Hips
{
	OFFSET 0.000000 0.000000 0.000000 
	CHANNELS 6 Xposition Yposition Zposition Yrotation Zrotation Xrotation 
	JOINT Lumbar
	{
		OFFSET 0.000000 0.000000 0.000000 
		CHANNELS 3 Zrotation Xrotation Yrotation
		JOINT Neck
		{
			OFFSET 0.000000 0.445665 0.000000 
			CHANNELS 3 Zrotation Xrotation Yrotation
			End Site
			{
				OFFSET 0.000000 0.227535 0.000000 
			}
		}
		JOINT RightShoulder
		{
			OFFSET 0.019635 0.377685 0.194865 
			CHANNELS 3 Zrotation Xrotation Yrotation
			JOINT RightElbow
			{
				OFFSET 0.000000 -0.243375 0.000000 
				CHANNELS 2 Zrotation Yrotation
				JOINT RightWrist
				{
					OFFSET 0.000000 -0.264825 0.000000 
					CHANNELS 2 Zrotation Xrotation
					End Site
					{
						OFFSET 0.006600 -0.176220 0.000990 
					}
				}
			}
		}
		JOINT LeftShoulder
		{
			OFFSET 0.019635 0.377685 -0.194865 
			CHANNELS 3 Zrotation Xrotation Yrotation
			JOINT LeftElbow
			{
				OFFSET 0.000000 -0.243375 0.000000 
				CHANNELS 2 Zrotation Yrotation
				JOINT LeftWrist
				{
					OFFSET 0.000000 -0.264825 0.000000 
					CHANNELS 2 Zrotation Xrotation
					End Site
					{
						OFFSET 0.006600 -0.176220 -0.000990 
					}
				}
			}
		}
	}
	JOINT RightHip
	{
		OFFSET 0.052140 -0.069960 0.075570 
		CHANNELS 3 Zrotation Xrotation Yrotation
		JOINT RightKnee
		{
			OFFSET 0.000000 -0.402270 0.000000 
			CHANNELS 1 Zrotation
			JOINT RightAnkle
			{
				OFFSET 0.000000 -0.404085 0.000000 
				CHANNELS 3 Zrotation Xrotation Yrotation
				End Site
				{
					OFFSET 0.204105 -0.089430 0.008415 
				}
			}
		}
	}
	JOINT LeftHip
	{
		OFFSET 0.052140 -0.069960 -0.075570 
		CHANNELS 3 Zrotation Xrotation Yrotation
		JOINT LeftKnee
		{
			OFFSET 0.000000 -0.402270 0.000000 
			CHANNELS 1 Zrotation
			JOINT LeftAnkle
			{
				OFFSET 0.000000 -0.404085 0.000000 
				CHANNELS 3 Zrotation Xrotation Yrotation
				End Site
				{
					OFFSET 0.204105 -0.089430 -0.008415 
				}
			}
		}
	}
}
MOTION
Frames: 28
Frame Time: 0.02
-0.70592 0.94334 -0.57875 209.43082 0 -4.96318 10.45002 2.77499 -4.24905 -41.04154 9.08888 10.11868 44.84903 -27.29646 53.01762 64.02554 98.79051 -43.44328 -5.2818 35.68828 5.05445 -11.06954 15.7171 -80.96337 -3.75695 6.61291 -2.1635 10.55196 15.43384 -8.60292 -9.74095 2.20295 -20.00254 -1.55021 14.39468 -7.20486 -14.29276 -2.19111 2.31618 0.15563
-0.70737 0.94344 -0.58157 209.52206 0 -4.85409 10.42928 2.74093 -4.21661 -41.08683 9.02214 10.07586 44.90917 -27.21042 52.83594 63.98416 98.78796 -43.54733 -5.28127 35.75624 5.11962 -11.10089 15.7664 -81.0439 -3.77129 6.66852 -2.18436 10.63852 15.73834 -8.56088 -9.77407 2.30428 -20.41036 -1.36753 14.45633 -7.29008 -14.51588 -2.36069 2.27506 0.00047
-0.70866 0.94358 -0.58419 209.58398 0 -4.7449 10.40846 2.71109 -4.18005 -41.15263 8.9712 10.05127 44.986 -27.14241 52.60942 63.91912 98.70952 -43.57296 -5.2767 35.74887 5.15837 -10.94596 15.69229 -81.12304 -3.75448 6.62125 -2.2021 10.6635 15.4647 -8.49574 -9.85996 2.14211 -20.23058 -1.20579 14.50286 -7.3422 -14.70634 -2.54571 2.24433 -0.14847
-0.71 0.9437 -0.5869 209.65812 0 -4.63622 10.38467 2.68006 -4.14192 -41.20301 8.9139 10.02093 45.05131 -27.07863 52.37373 63.86712 98.64176 -43.62455 -5.27176 35.76722 5.20801 -10.87105 15.66555 -81.19983 -3.74825 6.61295 -2.21993 10.71217 15.39861 -8.44009 -9.92244 2.08286 -20.2644 -1.03284 14.55512 -7.4124 -14.91336 -2.72259 2.20904 -0.29708
-0.71146 0.94383 -0.58963 209.73322 0 -4.52577 10.3741 2.64721 -4.11428 -41.28144 8.85064 9.97823 45.12817 -26.95218 52.26064 63.80842 98.68783 -43.72398 -5.27758 35.8223 5.26511 -10.81487 15.67404 -81.28813 -3.75626 6.63632 -2.24233 10.77974 15.57872 -8.39031 -9.98205 2.09903 -20.53399 -0.86873 14.6122 -7.4695 -15.11206 -2.90391 2.17306 -0.45749
-0.71261 0.94395 -0.59226 209.80204 0 -4.41898 10.33508 2.61836 -4.0677 -41.30375 8.80693 9.96889 45.19163 -26.97442 51.884 63.75457 98.46563 -43.69815 -5.25847 35.78035 5.2961 -10.67439 15.58013 -81.35298 -3.72763 6.56994 -2.25476 10.79356 15.11174 -8.32212 -10.06028 1.89717 -20.17792 -0.68921 14.6552 -7.54781 -15.32194 -3.07973 2.14114 -0.59193
-0.71304 0.94405 -0.59471 209.8454 0 -4.32144 10.22587 2.60382 -3.94058 -41.18712 8.78319 10.01398 45.16184 -27.2791 50.7749 63.74617 97.61619 -43.39663 -5.18224 35.51793 5.30191 -10.3643 15.23773 -81.34756 -3.60429 6.27859 -2.24174 10.66718 12.8983 -8.20968 -10.17788 1.11644 -18.12713 -0.47838 14.66867 -7.67181 -15.55584 -3.23699 2.11615 -0.66256
-0.71315 0.94414 -0.59707 209.88668 0 -4.22774 10.08636 2.59245 -3.79982 -41.00949 8.78396 10.0975 45.13222 -27.75491 49.40833 63.73665 96.4784 -42.9606 -5.07794 35.15564 5.27541 -9.97349 14.79622 -81.31944 -3.44555 5.90122 -2.21865 10.48983 10.06887 -8.07912 -10.31233 0.13174 -15.48431 -0.24823 14.6675 -7.82173 -15.80475 -3.38815 2.09516 -0.70655
-0.71335 0.94424 -0.59946 209.93926 0 -4.13279 9.95545 2.57642 -3.68517 -40.84573 8.79354 10.18568 45.13086 -28.23441 48.16585 63.71274 95.41317 -42.55409 -4.98077 34.81986 5.23669 -9.60759 14.39748 -81.30607 -3.30379 5.56467 -2.19958 10.3402 7.58501 -7.956 -10.43855 -0.73344 -13.18284 -0.01622 14.66949 -7.97362 -16.05661 -3.54187 2.07351 -0.75863
-0.71376 0.94433 -0.60187 209.94699 0 -4.03565 9.84694 2.57325 -3.48788 -40.74052 8.72036 10.18326 44.99169 -28.37406 46.87859 63.75859 94.60323 -42.28378 -4.91161 34.5597 5.30862 -9.28219 14.00332 -81.27529 -3.15686 5.21647 -2.18303 10.16955 4.80592 -7.83542 -10.56896 -1.72016 -10.55783 0.17004 14.68587 -8.06738 -16.26646 -3.697 2.04747 -0.82669
-0.71365 0.94444 -0.60421 210.04811 0 -3.94413 9.68388 2.5451 -3.45753 -40.49942 8.82404 10.37574 45.16289 -29.2577 45.64072 63.64954 93.1803 -41.69203 -4.77203 34.12106 5.14527 -8.85903 13.57858 -81.27368 -3.01306 4.87439 -2.15852 10.03095 2.50091 -7.7056 -10.69402 -2.49969 -8.47143 0.45657 14.66878 -8.28747 -16.56734 -3.84755 2.03124 -0.85612
-0.71226 0.94462 -0.60642 210.40679 0 -3.86565 9.38341 2.43771 -3.9083 -39.89137 9.41853 11.11897 45.98908 -32.18606 44.45678 63.19822 90.26247 -40.306 -4.49288 33.20017 4.3199 -8.15769 13.08719 -81.37332 -2.88367 4.56264 -2.11757 9.9968 1.67524 -7.5543 -10.79957 -2.64815 -8.039 1.01427 14.56453 -8.8606 -17.11939 -3.98739 2.04217 -0.77804
-0.71034 0.94482 -0.60855 210.85951 0 -3.79281 9.02799 2.30677 -4.52403 -39.15025 10.18758 12.05194 47.16434 -35.84771 43.3567 62.57716 86.72136 -38.59163 -4.13578 32.10668 3.26377 -7.3666 12.57064 -81.50053 -2.75942 4.26197 -2.06833 9.99605 1.34741 -7.39458 -10.89905 -2.58141 -8.16793 1.67229 14.42672 -9.55736 -17.76165 -4.123 2.06254 -0.6636
-0.70862 0.945 -0.61071 211.27033 0 -3.71865 8.69394 2.19293 -5.05374 -38.47375 10.87231 12.88461 48.31335 -39.15677 42.31652 61.97565 83.37353 -36.98655 -3.78177 31.10093 2.32541 -6.63632 12.07003 -81.60486 -2.63479 3.96169 -2.02097 9.97833 0.78132 -7.23898 -11.00136 -2.61791 -8.0284 2.28548 14.30342 -10.19183 -18.36094 -4.25981 2.07788 -0.57042
-0.70707 0.9452 -0.6129 211.6789 0 -3.64017 8.3741 2.0525 -5.63126 -37.77579 11.58283 13.78158 48.90721 -42.56754 40.86222 61.60943 80.36636 -35.53951 -3.55963 30.04995 1.32735 -5.81992 11.54543 -81.75103 -2.50036 3.63534 -1.98152 9.96738 0.24288 -7.08116 -11.10377 -2.63893 -7.92401 2.89711 14.18331 -10.8563 -18.97061 -4.39819 2.09659 -0.4555
-0.70503 0.94538 -0.615 212.11281 0 -3.57098 8.01192 1.9614 -6.1465 -37.094 12.27592 14.58475 50.73553 -45.92074 40.28284 60.7226 76.54186 -33.69437 -3.0493 29.05655 0.40441 -5.16095 11.06792 -81.81826 -2.3884 3.36718 -1.92338 9.94965 -0.22532 -6.92661 -11.20457 -2.63812 -7.88775 3.53429 14.04803 -11.48313 -19.57796 -4.53395 2.11032 -0.37861
-0.70182 0.94543 -0.61692 212.60848 0 -3.53459 7.54735 2.01581 -6.46769 -36.47203 12.92006 15.12051 55.92643 -49.08612 42.19491 58.36283 70.31826 -30.76387 -1.72448 28.24004 -0.29943 -4.97311 10.71228 -81.64907 -2.33442 3.25671 -1.81905 9.91652 -0.63005 -6.77992 -11.3002 -2.63038 -7.9045 4.22824 13.88584 -12.01064 -20.17294 -4.64958 2.1093 -0.40772
-0.69813 0.94545 -0.61875 213.12375 0 -3.50581 7.04215 2.11999 -6.71763 -35.87574 13.53312 15.54829 62.3383 -52.13957 44.96815 55.50433 63.36176 -27.45416 -0.1209 27.49331 -0.9118 -4.94393 10.40818 -81.40174 -2.30362 3.20499 -1.69571 9.8736 -0.97631 -6.63746 -11.39475 -2.60683 -7.97326 4.94216 13.70861 -12.48877 -20.75911 -4.76494 2.10261 -0.47849
-0.69463 0.94551 -0.62059 213.62024 0 -3.46783 6.55483 2.19904 -6.98762 -35.2778 14.13227 16 68.16799 -55.1443 47.28523 52.9183 56.92068 -24.36614 1.33187 26.73002 -1.53569 -4.83382 10.0903 -81.19805 -2.26418 3.12692 -1.57881 9.82778 -1.34066 -6.49536 -11.49113 -2.5891 -8.01955 5.64005 13.53355 -12.96732 -21.33902 -4.89018 2.09769 -0.53488
-0.69122 0.94548 -0.62252 214.16129 0 -3.45398 6.06752 2.2879 -7.31343 -34.62771 14.85413 16.56339 74.13332 -58.59399 49.87789 50.11252 49.63994 -21.07054 2.89488 25.89325 -2.29193 -4.76022 9.73045 -80.96122 -2.21676 3.04741 -1.47053 9.81379 -1.72452 -6.34356 -11.5816 -2.57007 -8.07931 6.37159 13.37588 -13.54569 -21.96656 -4.97586 2.09671 -0.56871
-0.68753 0.94563 -0.62426 214.61346 0 -3.39201 5.5719 2.36841 -7.50638 -34.10055 15.31296 16.86743 80.09125 -61.08223 52.10095 47.67379 44.00223 -18.10609 4.28636 25.23268 -2.75103 -4.6464 9.471 -80.77422 -2.19159 2.98512 -1.34037 9.73118 -2.05942 -6.21276 -11.6843 -2.55236 -8.11712 7.03552 13.18026 -13.89965 -22.49017 -5.14166 2.08578 -0.66247
-0.68311 0.94629 -0.62555 214.8105 0 -3.19212 5.05845 2.41429 -7.32803 -33.85067 15.03296 16.46936 85.81198 -60.92673 53.08412 46.15384 42.54877 -16.28805 5.19654 25.00484 -2.38281 -4.4107 9.47297 -80.74629 -2.22055 2.95249 -1.15051 9.45795 -2.28173 -6.14191 -11.82002 -2.5465 -8.07145 7.51479 12.87196 -13.67339 -22.74112 -5.5476 2.05152 -0.88697
-0.67842 0.94714 -0.62664 214.91771 0 -2.94429 4.53949 2.45009 -7.02172 -33.73377 14.49227 15.81586 91.46271 -59.80783 53.66667 45.06239 42.86015 -14.79554 5.91297 24.95894 -1.72311 -4.12539 9.57486 -80.77066 -2.27129 2.93574 -0.94014 9.11666 -2.45755 -6.09157 -11.96822 -2.54282 -8.00102 7.92308 12.52841 -13.21823 -22.88533 -6.03011 2.00712 -1.17312
-0.67389 0.94791 -0.62781 215.06899 0 -2.72026 4.02613 2.49022 -6.78746 -33.59458 14.08313 15.28586 97.09423 -59.13567 54.43811 43.91711 42.73661 -13.05993 6.67778 24.85566 -1.21467 -3.84352 9.63333 -80.76937 -2.31328 2.91405 -0.74166 8.8085 -2.65176 -6.0299 -12.11148 -2.53627 -7.94582 8.35939 12.20861 -12.84805 -23.06957 -6.46597 1.96521 -1.4499
-0.66922 0.94869 -0.62904 215.20795 0 -2.48733 3.4971 2.53303 -6.49201 -33.29919 13.61747 14.71888 102.99776 -58.41834 55.21151 42.1572 41.10493 -11.69825 7.61906 24.65089 -0.62336 -3.64331 9.68551 -80.77323 -2.35171 2.88498 -0.53131 8.49012 -2.8556 -5.97674 -12.25191 -2.5367 -7.87606 8.81621 11.85521 -12.55262 -23.28814 -6.95425 1.93105 -1.65764
-0.66477 0.94947 -0.6301 215.35019 0 -2.26229 3.00136 2.56734 -6.29472 -33.35537 13.20844 14.17218 108.2849 -57.57282 55.8736 41.78856 42.95821 -9.65805 8.14411 24.69603 -0.13722 -3.26482 9.77344 -80.77994 -2.40181 2.87406 -0.34149 8.17775 -3.02861 -5.91082 -12.40085 -2.52364 -7.82992 9.21084 11.56414 -12.05279 -23.41148 -7.34855 1.87965 -2.01293
-0.66089 0.95021 -0.6308 215.53034 0 -2.0639 2.58741 2.57922 -6.39823 -34.39301 13.01588 13.72241 112.02448 -56.56573 56.32842 45.13514 54.74434 -5.5082 7.55708 25.41963 -0.00716 -2.35659 9.93891 -80.78094 -2.48407 2.91115 -0.20987 7.89234 -3.13376 -5.80362 -12.57315 -2.47065 -7.85462 9.47086 11.44991 -11.00158 -23.28535 -7.49093 1.77289 -2.84866
-0.65724 0.95093 -0.63132 215.71579 0 -1.87659 2.2098 2.58285 -6.60551 -35.77144 12.89016 13.30631 115.1122 -55.47271 56.67988 49.87218 69.84567 -0.69282 6.55851 26.38196 0.00572 -1.27893 10.13605 -80.78351 -2.57625 2.96539 -0.1004 7.61673 -3.20892 -5.68317 -12.75292 -2.40452 -7.90366 9.66692 11.40062 -9.76109 -23.06985 -7.53183 1.65119 -3.81383
